<?xml version="1.0" standalone="no"?>
<!DOCTYPE svg PUBLIC "-//W3C//DTD SVG 20010904//EN"
 "http://www.w3.org/TR/2001/REC-SVG-20010904/DTD/svg10.dtd">
<svg version="1.0" xmlns="http://www.w3.org/2000/svg"
 width="1280.000000pt" height="1276.000000pt" viewBox="0 0 1280.000000 1276.000000"
 preserveAspectRatio="xMidYMid meet">
<metadata>
Created by potrace 1.15, written by Peter Selinger 2001-2017
</metadata>
<g transform="translate(0.000000,1276.000000) scale(0.100000,-0.100000)"
fill="#ffffff" stroke="none">
<path d="M6760 12747 c-80 -5 -440 -10 -800 -11 -701 -2 -734 -4 -943 -57
-330 -84 -569 -281 -681 -563 -103 -256 -131 -705 -92 -1466 12 -241 16 -531
16 -1232 l0 -917 -1587 -4 c-1561 -3 -1590 -3 -1703 -24 -342 -62 -530 -149
-692 -322 -158 -167 -235 -377 -244 -666 -43 -1404 -42 -1813 7 -2355 21 -235
91 -400 233 -548 275 -287 730 -389 1591 -353 1225 51 2103 53 2330 7 l60 -12
6 -1489 c6 -1559 6 -1548 49 -1780 100 -535 405 -835 933 -921 88 -14 252 -17
1162 -24 591 -4 1099 -4 1148 1 159 16 312 56 422 112 118 59 259 181 333 290
118 170 195 415 227 722 18 173 21 593 6 860 -26 444 -32 678 -34 1432 l-2
811 54 7 c30 4 781 6 1670 5 1448 -2 1625 -1 1703 14 151 28 294 87 403 168
214 159 335 367 385 666 15 85 29 393 30 627 0 105 4 242 10 305 43 533 49
1047 15 1338 -44 386 -144 644 -325 835 -131 140 -278 220 -493 270 -92 21
-98 21 -1772 24 l-1680 3 3 1608 c2 1148 0 1635 -8 1706 -49 424 -255 701
-625 841 -243 91 -633 124 -1115 92z"/>
</g>
</svg>
